<?xml version="1.0" standalone="no"?>
<!DOCTYPE svg PUBLIC "-//W3C//DTD SVG 20010904//EN"
 "http://www.w3.org/TR/2001/REC-SVG-20010904/DTD/svg10.dtd">
<svg version="1.0" xmlns="http://www.w3.org/2000/svg"
 width="960.000000pt" height="960.000000pt" viewBox="0 0 960.000000 960.000000"
 preserveAspectRatio="xMidYMid meet">
<metadata>
Created by potrace 1.11, written by Peter Selinger 2001-2013
</metadata>
<g transform="translate(0.000000,960.000000) scale(0.100000,-0.100000)"
fill="#000000" stroke="none">
<path d="M3849 8395 c-2 -1 -38 -6 -79 -10 -132 -13 -144 -14 -210 -25 -36 -6
-78 -13 -95 -16 -16 -2 -56 -11 -88 -19 -32 -8 -71 -17 -85 -20 -15 -3 -58
-14 -97 -26 -38 -11 -95 -27 -125 -36 -30 -8 -67 -21 -82 -29 -15 -8 -35 -16
-45 -17 -20 -4 -20 -4 -143 -54 -88 -36 -351 -162 -360 -173 -3 -3 -20 -12
-37 -19 -18 -8 -33 -16 -33 -20 0 -3 -15 -13 -32 -21 -18 -7 -37 -18 -43 -22
-30 -24 -115 -76 -115 -70 0 4 -4 2 -8 -3 -4 -6 -52 -42 -107 -79 -55 -38
-101 -73 -103 -78 -2 -4 -8 -8 -13 -8 -5 0 -20 -9 -32 -20 -12 -11 -66 -56
-120 -99 -222 -180 -463 -415 -662 -647 -27 -32 -60 -69 -72 -83 -13 -14 -26
-30 -31 -36 -4 -5 -37 -46 -72 -91 -36 -45 -74 -93 -85 -108 -20 -29 -69 -93
-83 -111 -8 -11 -75 -105 -135 -192 -21 -29 -37 -57 -37 -62 0 -5 -3 -11 -8
-13 -9 -4 -121 -173 -129 -196 -4 -10 -10 -19 -14 -22 -9 -7 -47 -69 -61 -102
-7 -16 -16 -28 -20 -28 -4 0 -8 -5 -8 -10 0 -6 -20 -44 -45 -84 -25 -41 -45
-79 -45 -85 0 -5 -6 -16 -13 -23 -6 -7 -28 -44 -47 -83 -19 -38 -39 -73 -43
-76 -5 -3 -9 -13 -11 -21 -1 -8 -9 -27 -19 -41 -9 -15 -17 -33 -17 -42 0 -8
-4 -15 -10 -15 -5 0 -10 -4 -10 -9 0 -10 -90 -208 -110 -243 -14 -24 4 -24 38
1 31 21 209 109 262 129 19 8 64 25 100 39 36 13 76 27 89 29 13 3 31 9 40 13
14 7 66 21 139 36 12 3 32 7 44 10 12 2 40 8 63 11 22 4 51 8 65 11 21 3 241
15 275 14 32 0 159 -12 162 -15 2 -2 -17 -44 -42 -95 -51 -103 -149 -330 -201
-466 -19 -49 -39 -99 -44 -110 -37 -86 -216 -665 -225 -730 -1 -11 -5 -27 -8
-35 -5 -15 -18 -63 -23 -89 -1 -8 -10 -46 -18 -85 -9 -39 -18 -81 -21 -94 -2
-12 -6 -25 -8 -30 -3 -4 -8 -27 -11 -52 -3 -25 -9 -56 -12 -70 -3 -14 -7 -38
-10 -55 -3 -16 -9 -52 -14 -80 -16 -85 -19 -105 -15 -105 3 0 38 31 78 70 40
38 113 102 163 140 124 98 127 100 136 100 4 0 19 9 32 21 13 12 27 20 31 19
4 -1 11 3 14 8 3 5 33 24 66 42 216 119 465 208 453 163 -1 -4 2 -30 7 -58 5
-27 10 -54 10 -60 1 -5 4 -23 8 -40 4 -16 9 -39 11 -50 4 -19 22 -91 31 -125
2 -8 11 -46 20 -85 23 -93 21 -88 27 -105 3 -8 18 -58 33 -110 25 -85 54 -175
102 -310 18 -50 79 -209 98 -255 77 -182 233 -524 245 -535 3 -3 25 -45 50
-95 25 -49 47 -92 50 -95 3 -3 15 -23 27 -45 74 -139 183 -320 282 -469 47
-71 91 -136 96 -145 43 -68 47 -71 86 -71 36 0 39 2 40 28 3 78 15 205 24 250
2 11 7 42 11 69 5 26 9 50 9 53 1 3 5 16 8 30 4 14 9 36 11 50 19 104 94 304
169 450 163 316 325 442 842 655 11 5 22 9 25 9 3 1 24 9 45 18 22 9 99 38
170 63 72 25 137 49 145 52 8 3 20 7 25 9 6 1 66 23 135 47 69 25 151 48 181
51 61 7 226 47 274 67 17 6 37 13 45 15 8 2 23 7 35 13 20 9 60 23 60 21 0 -2
166 78 200 96 17 9 60 33 98 52 37 19 67 38 67 42 0 5 11 11 25 14 14 4 25 11
25 16 0 6 5 10 11 10 12 0 133 80 137 92 2 4 8 8 13 8 5 0 17 6 26 14 10 8 65
52 123 98 105 83 358 328 415 402 54 70 90 110 125 141 55 48 160 155 220 224
30 35 60 69 65 75 16 17 97 120 120 151 11 16 26 34 33 41 6 7 12 15 12 18 0
3 8 14 18 24 9 10 24 29 32 42 8 12 22 32 31 44 9 11 44 62 79 111 34 50 67
92 71 93 5 2 9 8 9 14 0 8 41 72 73 113 4 5 44 62 87 125 106 154 100 145 143
203 20 29 45 63 55 76 155 213 336 410 457 496 63 45 172 104 205 110 10 2 28
9 39 15 12 6 21 9 21 6 0 -3 17 2 37 10 20 9 49 18 63 20 31 5 65 12 65 14 0
1 14 3 30 5 17 2 39 6 50 9 21 5 87 13 180 21 70 6 229 6 295 0 132 -11 214
-21 265 -32 11 -2 31 -6 45 -9 14 -3 43 -10 65 -16 22 -5 48 -12 57 -13 10 -2
23 -7 28 -10 22 -14 8 14 -32 62 -24 27 -52 61 -63 75 -25 32 -112 131 -190
217 -83 92 -407 412 -495 491 -40 36 -78 70 -84 75 -59 53 -165 142 -226 191
-41 32 -86 69 -100 82 -14 12 -33 25 -42 28 -10 3 -18 9 -18 14 0 5 -17 19
-37 31 -21 13 -49 34 -63 46 -14 13 -30 23 -37 23 -7 0 -13 4 -13 9 0 4 -30
28 -67 52 -38 23 -70 46 -73 49 -3 3 -23 17 -45 30 -22 13 -42 27 -45 30 -32
35 -618 364 -652 365 -4 0 -13 6 -20 13 -6 6 -17 12 -24 12 -7 0 -45 15 -86
34 -40 18 -95 42 -123 51 -27 10 -54 22 -59 27 -6 4 -16 8 -22 8 -7 0 -25 5
-41 12 -15 6 -30 12 -33 13 -3 1 -12 4 -20 8 -82 33 -420 127 -457 127 -13 0
-23 3 -23 8 0 4 -10 7 -22 8 -13 0 -36 3 -53 7 -208 43 -404 61 -655 61 -151
0 -336 -9 -385 -19 -11 -2 -39 -7 -62 -10 -24 -3 -61 -8 -84 -11 -22 -3 -48
-7 -57 -8 -9 -2 -45 3 -80 11 -35 7 -80 16 -100 19 -20 3 -48 7 -62 9 -14 3
-45 7 -70 10 -25 3 -58 8 -75 11 -33 6 -511 15 -516 9z"/>
</g>
</svg>
