<?xml version="1.0" standalone="no"?>
<!DOCTYPE svg PUBLIC "-//W3C//DTD SVG 20010904//EN"
 "http://www.w3.org/TR/2001/REC-SVG-20010904/DTD/svg10.dtd">
<svg version="1.0" xmlns="http://www.w3.org/2000/svg"
 width="700.000000pt" height="700.000000pt" viewBox="0 0 700.000000 700.000000"
 preserveAspectRatio="xMidYMid meet">
<metadata>
Created by potrace 1.11, written by Peter Selinger 2001-2013
</metadata>
<g transform="translate(0.000000,700.000000) scale(0.100000,-0.100000)"
fill="#000000" stroke="none">
<path d="M3157 6994 c-1 -1 -49 -5 -107 -8 -107 -7 -162 -12 -215 -21 -16 -3
-50 -8 -75 -11 -25 -3 -97 -17 -160 -30 -155 -33 -149 -32 -185 -44 -18 -6
-42 -12 -54 -15 -104 -20 -442 -157 -620 -252 -162 -86 -387 -231 -481 -310
-14 -11 -59 -49 -100 -83 -508 -420 -899 -1043 -1064 -1695 -24 -97 -33 -138
-40 -180 -2 -11 -9 -47 -15 -81 -34 -181 -40 -272 -37 -589 3 -323 7 -370 52
-605 61 -319 194 -678 360 -973 45 -80 191 -307 204 -317 3 -3 17 -21 30 -40
13 -19 29 -40 35 -46 5 -6 45 -54 87 -105 249 -303 604 -587 983 -788 233
-124 589 -253 825 -300 30 -6 66 -14 80 -17 95 -19 252 -41 379 -50 156 -12
487 -6 603 11 18 2 79 11 136 20 116 17 333 63 344 74 4 3 1 29 -8 56 -8 27
-16 60 -19 73 -2 13 -18 76 -36 140 -17 64 -42 158 -56 207 -13 50 -32 122
-43 160 -11 39 -33 124 -50 190 -18 66 -47 179 -67 250 -19 72 -36 138 -38
149 -3 10 -12 44 -21 75 -9 31 -18 64 -19 73 -6 29 -95 362 -98 364 -2 2 -27
-3 -57 -11 -30 -7 -80 -17 -110 -20 -30 -4 -64 -9 -75 -11 -27 -6 -275 -5
-302 0 -11 3 -43 8 -70 11 -203 29 -418 113 -607 237 -10 7 -52 39 -93 71
-295 231 -497 582 -550 957 -10 69 -10 336 -1 413 32 249 152 528 313 727 58
72 158 174 212 217 20 15 41 33 47 38 48 46 208 137 336 193 273 119 653 144
956 63 544 -147 962 -589 1074 -1136 27 -131 32 -177 31 -300 0 -131 -6 -193
-30 -310 -12 -59 -14 -88 -7 -91 6 -2 45 -12 86 -23 41 -11 118 -32 170 -46
52 -14 138 -37 190 -51 52 -14 118 -31 145 -39 55 -16 451 -124 475 -130 8 -1
40 -10 71 -19 31 -9 65 -18 75 -21 11 -2 44 -10 74 -19 30 -8 105 -28 165 -45
61 -16 144 -39 185 -50 41 -12 77 -18 80 -13 6 7 35 126 46 187 2 17 7 37 9
45 3 8 7 33 10 55 4 22 8 47 10 55 2 8 7 42 10 75 4 33 8 71 10 84 7 41 18
243 18 326 0 94 -12 333 -18 366 -3 13 -7 53 -11 89 -3 36 -8 68 -10 72 -3 4
-7 26 -10 50 -3 24 -10 59 -14 78 -5 19 -12 51 -15 70 -18 108 -102 374 -171
544 -98 238 -280 557 -420 736 -121 154 -342 390 -454 485 -356 303 -752 525
-1165 654 -145 45 -152 47 -245 70 -149 35 -308 60 -495 77 -65 5 -373 13
-378 8z"/>
<path d="M4180 2812 c0 -4 5 -23 11 -42 5 -19 12 -42 14 -50 6 -23 190 -717
231 -870 20 -74 44 -166 54 -205 10 -38 26 -97 35 -130 20 -75 37 -138 119
-450 36 -137 70 -263 75 -280 8 -25 33 -118 47 -175 2 -8 11 -42 20 -75 9 -33
18 -67 20 -75 1 -8 17 -67 34 -130 17 -63 33 -122 35 -130 1 -8 10 -40 19 -71
19 -64 27 -98 28 -116 1 -7 4 -11 7 -8 36 32 2059 2060 2057 2063 -3 2 -237
67 -506 138 -52 14 -135 36 -185 50 -49 13 -157 42 -240 63 -82 22 -181 49
-220 60 -54 15 -284 77 -395 106 -74 19 -195 52 -355 95 -104 28 -197 53 -205
55 -34 9 -248 67 -462 124 -246 66 -238 64 -238 53z"/>
</g>
</svg>
