<svg width="417" height="59" viewBox="0 0 417 59" fill="none" xmlns="http://www.w3.org/2000/svg">
<path d="M8.35999 48.42C5.79999 48.42 3.87999 47.76 2.59999 46.44C1.35999 45.12 0.73999 43.38 0.73999 41.22C0.73999 39.42 1.19999 37.94 2.11999 36.78C3.07999 35.58 4.21999 34.66 5.53999 34.02C6.89999 33.38 8.61999 32.7 10.7 31.98C12.9 31.22 14.5 30.54 15.5 29.94C16.54 29.3 17.06 28.44 17.06 27.36V22.68C17.06 21 16.66 19.7 15.86 18.78C15.1 17.82 13.9 17.34 12.26 17.34C10.34 17.34 8.87999 17.82 7.87999 18.78C8.99999 19.18 9.85999 19.78 10.46 20.58C11.1 21.38 11.42 22.32 11.42 23.4C11.42 24.76 10.96 25.84 10.04 26.64C9.11999 27.44 7.99999 27.84 6.67999 27.84C5.27999 27.84 4.19999 27.4 3.43999 26.52C2.67999 25.64 2.29999 24.54 2.29999 23.22C2.29999 22.1 2.55999 21.16 3.07999 20.4C3.63999 19.6 4.47999 18.86 5.59999 18.18C6.67999 17.54 7.99999 17.04 9.55999 16.68C11.16 16.32 12.9 16.14 14.78 16.14C16.74 16.14 18.44 16.34 19.88 16.74C21.32 17.14 22.52 17.82 23.48 18.78C24.36 19.66 24.94 20.74 25.22 22.02C25.54 23.3 25.7 25.04 25.7 27.24V43.56C25.7 44.52 25.78 45.2 25.94 45.6C26.14 46 26.5 46.2 27.02 46.2C27.62 46.2 28.34 45.86 29.18 45.18L29.78 46.2C27.98 47.68 25.78 48.42 23.18 48.42C20.98 48.42 19.44 47.98 18.56 47.1C17.68 46.22 17.22 45.04 17.18 43.56C15.18 46.8 12.24 48.42 8.35999 48.42ZM12.98 44.58C14.54 44.58 15.9 43.76 17.06 42.12V29.82C16.58 30.62 15.56 31.5 14 32.46C12.44 33.46 11.26 34.46 10.46 35.46C9.65999 36.46 9.25999 37.9 9.25999 39.78C9.25999 41.42 9.59999 42.64 10.28 43.44C10.96 44.2 11.86 44.58 12.98 44.58Z" fill="#383838"/>
<path d="M50.9347 16.14C52.7347 16.14 54.0947 16.68 55.0147 17.76C55.9347 18.84 56.3947 20.14 56.3947 21.66C56.3947 23.14 55.9547 24.36 55.0747 25.32C54.2347 26.24 53.1147 26.7 51.7147 26.7C50.3547 26.7 49.2747 26.36 48.4747 25.68C47.6747 24.96 47.2747 24.02 47.2747 22.86C47.2747 20.94 48.1547 19.38 49.9147 18.18C49.7547 18.14 49.5147 18.12 49.1947 18.12C48.7947 18.12 48.4747 18.16 48.2347 18.24C46.7147 18.48 45.4147 19.4 44.3347 21C43.2947 22.6 42.7747 24.24 42.7747 25.92V41.82C42.7747 43.66 43.2147 44.94 44.0947 45.66C45.0147 46.38 46.4547 46.74 48.4147 46.74V48C47.8547 48 47.3947 47.98 47.0347 47.94C42.9547 47.82 40.2347 47.76 38.8747 47.76C37.7947 47.76 35.3347 47.82 31.4947 47.94C31.1747 47.98 30.7747 48 30.2947 48V46.74C31.7347 46.74 32.7347 46.44 33.2947 45.84C33.8547 45.2 34.1347 44.06 34.1347 42.42V23.52C34.1347 21.68 33.8547 20.34 33.2947 19.5C32.7347 18.66 31.7347 18.24 30.2947 18.24V16.98C31.5747 17.1 32.8147 17.16 34.0147 17.16C37.5747 17.16 40.4947 16.88 42.7747 16.32V21.9C43.5347 20.18 44.6347 18.8 46.0747 17.76C47.5147 16.68 49.1347 16.14 50.9347 16.14Z" fill="#383838"/>
<path d="M69.2825 16.98H76.3625V18.18H69.2825V42.42C69.2825 43.62 69.4825 44.48 69.8825 45C70.3225 45.48 71.0025 45.72 71.9225 45.72C73.6425 45.72 75.0025 44.52 76.0025 42.12L77.0225 42.66C75.5025 46.78 72.7625 48.84 68.8025 48.84C66.1625 48.84 64.1625 48.16 62.8025 46.8C61.9625 45.96 61.3825 44.92 61.0625 43.68C60.7825 42.4 60.6425 40.66 60.6425 38.46V18.18H55.6025V16.98H60.6425V9.06002C63.9625 9.06002 66.8425 8.42002 69.2825 7.14002V16.98Z" fill="#383838"/>
<path d="M100.816 34.26H79.1562V29.28H100.816V34.26Z" fill="#383838"/>
<path d="M126.223 16.14C128.303 16.14 130.143 16.7 131.743 17.82C133.383 18.94 134.663 20.62 135.583 22.86C136.503 25.1 136.963 27.84 136.963 31.08C136.963 36.8 135.703 41.2 133.183 44.28C130.703 47.32 127.323 48.84 123.043 48.84C121.843 48.84 120.703 48.68 119.623 48.36C118.583 48.04 117.683 47.56 116.923 46.92V52.92C116.923 54.68 117.363 55.9 118.243 56.58C119.123 57.26 120.483 57.6 122.323 57.6V58.86L120.703 58.8C116.263 58.68 113.443 58.62 112.243 58.62C111.043 58.62 108.523 58.7 104.683 58.86V57.6C106.003 57.6 106.923 57.3 107.443 56.7C108.003 56.14 108.283 55.08 108.283 53.52V23.52C108.283 21.68 107.983 20.34 107.383 19.5C106.823 18.66 105.843 18.24 104.443 18.24V16.98C105.723 17.1 106.963 17.16 108.163 17.16C111.643 17.16 114.563 16.88 116.923 16.32V21.84C117.763 20 118.983 18.6 120.583 17.64C122.183 16.64 124.063 16.14 126.223 16.14ZM120.703 47.22C123.263 47.22 125.103 45.96 126.223 43.44C127.343 40.88 127.903 37.16 127.903 32.28C127.903 27.4 127.443 23.92 126.523 21.84C125.643 19.76 124.363 18.72 122.683 18.72C121.323 18.72 120.103 19.18 119.023 20.1C117.983 21.02 117.283 22.3 116.923 23.94V45.6C117.883 46.68 119.143 47.22 120.703 47.22Z" fill="#383838"/>
<path d="M160.1 16.14C161.9 16.14 163.26 16.68 164.18 17.76C165.1 18.84 165.56 20.14 165.56 21.66C165.56 23.14 165.12 24.36 164.24 25.32C163.4 26.24 162.28 26.7 160.88 26.7C159.52 26.7 158.44 26.36 157.64 25.68C156.84 24.96 156.44 24.02 156.44 22.86C156.44 20.94 157.32 19.38 159.08 18.18C158.92 18.14 158.68 18.12 158.36 18.12C157.96 18.12 157.64 18.16 157.4 18.24C155.88 18.48 154.58 19.4 153.5 21C152.46 22.6 151.94 24.24 151.94 25.92V41.82C151.94 43.66 152.38 44.94 153.26 45.66C154.18 46.38 155.62 46.74 157.58 46.74V48C157.02 48 156.56 47.98 156.2 47.94C152.12 47.82 149.4 47.76 148.04 47.76C146.96 47.76 144.5 47.82 140.66 47.94C140.34 47.98 139.94 48 139.46 48V46.74C140.9 46.74 141.9 46.44 142.46 45.84C143.02 45.2 143.3 44.06 143.3 42.42V23.52C143.3 21.68 143.02 20.34 142.46 19.5C141.9 18.66 140.9 18.24 139.46 18.24V16.98C140.74 17.1 141.98 17.16 143.18 17.16C146.74 17.16 149.66 16.88 151.94 16.32V21.9C152.7 20.18 153.8 18.8 155.24 17.76C156.68 16.68 158.3 16.14 160.1 16.14Z" fill="#383838"/>
<path d="M174.067 1.50002C175.747 1.50002 177.067 1.92002 178.027 2.76002C179.027 3.56002 179.527 4.68002 179.527 6.12002C179.527 7.56002 179.027 8.70002 178.027 9.54002C177.067 10.34 175.747 10.74 174.067 10.74C172.387 10.74 171.047 10.34 170.047 9.54002C169.087 8.70002 168.607 7.56002 168.607 6.12002C168.607 4.68002 169.087 3.56002 170.047 2.76002C171.047 1.92002 172.387 1.50002 174.067 1.50002ZM178.747 42.42C178.747 44.06 179.027 45.2 179.587 45.84C180.187 46.44 181.187 46.74 182.587 46.74V48C178.587 47.84 175.927 47.76 174.607 47.76C173.367 47.76 170.587 47.84 166.267 48V46.74C167.707 46.74 168.707 46.44 169.267 45.84C169.827 45.2 170.107 44.06 170.107 42.42V23.52C170.107 21.68 169.827 20.34 169.267 19.5C168.707 18.66 167.707 18.24 166.267 18.24V16.98C167.547 17.1 168.787 17.16 169.987 17.16C173.547 17.16 176.467 16.88 178.747 16.32V42.42Z" fill="#383838"/>
<path d="M206.313 16.14C209.353 16.14 211.553 16.92 212.913 18.48C213.593 19.24 214.073 20.22 214.353 21.42C214.633 22.62 214.773 24.24 214.773 26.28V42.42C214.773 44.06 215.053 45.2 215.613 45.84C216.213 46.44 217.213 46.74 218.613 46.74V48C214.613 47.84 211.973 47.76 210.693 47.76C209.493 47.76 206.893 47.84 202.893 48V46.74C204.093 46.74 204.933 46.44 205.413 45.84C205.893 45.2 206.133 44.06 206.133 42.42V23.76C206.133 22.12 205.853 20.88 205.293 20.04C204.773 19.2 203.813 18.78 202.413 18.78C200.773 18.78 199.373 19.46 198.213 20.82C197.053 22.14 196.473 23.78 196.473 25.74V42.42C196.473 44.06 196.713 45.2 197.193 45.84C197.673 46.44 198.513 46.74 199.713 46.74V48C196.033 47.84 193.553 47.76 192.273 47.76C191.073 47.76 188.313 47.84 183.993 48V46.74C185.433 46.74 186.433 46.44 186.993 45.84C187.553 45.2 187.833 44.06 187.833 42.42V23.52C187.833 21.68 187.553 20.34 186.993 19.5C186.433 18.66 185.433 18.24 183.993 18.24V16.98C185.273 17.1 186.513 17.16 187.713 17.16C191.273 17.16 194.193 16.88 196.473 16.32V21.72C198.273 18 201.553 16.14 206.313 16.14Z" fill="#383838"/>
<path d="M231.829 16.98H238.909V18.18H231.829V42.42C231.829 43.62 232.029 44.48 232.429 45C232.869 45.48 233.549 45.72 234.469 45.72C236.189 45.72 237.549 44.52 238.549 42.12L239.569 42.66C238.049 46.78 235.309 48.84 231.349 48.84C228.709 48.84 226.709 48.16 225.349 46.8C224.509 45.96 223.929 44.92 223.609 43.68C223.329 42.4 223.189 40.66 223.189 38.46V18.18H218.149V16.98H223.189V9.06002C226.509 9.06002 229.389 8.42002 231.829 7.14002V16.98Z" fill="#383838"/>
<path d="M263.816 16.14C265.336 16.14 266.736 16.34 268.016 16.74C269.296 17.1 270.276 17.52 270.956 18C271.356 18.28 271.716 18.42 272.036 18.42C272.396 18.42 272.696 18.24 272.936 17.88C273.216 17.48 273.396 16.92 273.476 16.2H274.736C274.576 18.24 274.496 21.76 274.496 26.76H273.236C272.876 24.12 272.076 21.92 270.836 20.16C269.636 18.36 267.876 17.46 265.556 17.46C264.356 17.46 263.356 17.8 262.556 18.48C261.796 19.16 261.416 20.1 261.416 21.3C261.416 22.66 261.876 23.84 262.796 24.84C263.716 25.8 265.156 26.98 267.116 28.38L268.856 29.64C271.296 31.48 273.096 33.12 274.256 34.56C275.416 36 275.996 37.8 275.996 39.96C275.996 41.72 275.476 43.28 274.436 44.64C273.436 46 272.076 47.04 270.356 47.76C268.636 48.48 266.736 48.84 264.656 48.84C262.456 48.84 260.576 48.42 259.016 47.58C257.736 46.94 256.816 46.52 256.256 46.32C255.856 46.2 255.496 46.34 255.176 46.74C254.896 47.1 254.676 47.66 254.516 48.42H253.256C253.416 46.14 253.496 42.14 253.496 36.42H254.756C255.556 43.78 258.256 47.46 262.856 47.46C264.016 47.46 264.996 47.12 265.796 46.44C266.636 45.72 267.056 44.64 267.056 43.2C267.056 42.08 266.796 41.08 266.276 40.2C265.796 39.32 265.176 38.54 264.416 37.86C263.656 37.18 262.516 36.24 260.996 35.04C259.196 33.6 257.816 32.44 256.856 31.56C255.936 30.68 255.136 29.64 254.456 28.44C253.816 27.24 253.496 25.9 253.496 24.42C253.496 21.86 254.496 19.84 256.496 18.36C258.496 16.88 260.936 16.14 263.816 16.14Z" fill="#383838"/>
<path d="M290.631 16.98H297.711V18.18H290.631V42.42C290.631 43.62 290.831 44.48 291.231 45C291.671 45.48 292.351 45.72 293.271 45.72C294.991 45.72 296.351 44.52 297.351 42.12L298.371 42.66C296.851 46.78 294.111 48.84 290.151 48.84C287.511 48.84 285.511 48.16 284.151 46.8C283.311 45.96 282.731 44.92 282.411 43.68C282.131 42.4 281.991 40.66 281.991 38.46V18.18H276.951V16.98H281.991V9.06002C285.311 9.06002 288.191 8.42002 290.631 7.14002V16.98Z" fill="#383838"/>
<path d="M328.225 41.46C328.225 43.3 328.505 44.64 329.065 45.48C329.665 46.32 330.665 46.74 332.065 46.74V48C330.825 47.88 329.585 47.82 328.345 47.82C324.865 47.82 321.945 48.1 319.585 48.66V43.26C317.745 46.98 314.525 48.84 309.925 48.84C306.925 48.84 304.745 48.06 303.385 46.5C302.745 45.74 302.265 44.76 301.945 43.56C301.665 42.32 301.525 40.7 301.525 38.7V23.52C301.525 21.68 301.225 20.34 300.625 19.5C300.065 18.66 299.085 18.24 297.685 18.24V16.98C298.925 17.1 300.165 17.16 301.405 17.16C304.885 17.16 307.805 16.88 310.165 16.32V41.16C310.165 42.84 310.405 44.1 310.885 44.94C311.405 45.78 312.365 46.2 313.765 46.2C315.365 46.2 316.725 45.54 317.845 44.22C319.005 42.86 319.585 41.2 319.585 39.24V23.52C319.585 21.68 319.285 20.34 318.685 19.5C318.125 18.66 317.145 18.24 315.745 18.24V16.98C317.025 17.1 318.265 17.16 319.465 17.16C322.945 17.16 325.865 16.88 328.225 16.32V41.46Z" fill="#383838"/>
<path d="M363.051 41.4C363.051 43.24 363.331 44.58 363.891 45.42C364.451 46.26 365.451 46.68 366.891 46.68V47.94C365.651 47.82 364.411 47.76 363.171 47.76C359.611 47.76 356.691 48.04 354.411 48.6V43.44C353.051 47.04 350.451 48.84 346.611 48.84C342.851 48.84 339.851 47.48 337.611 44.76C335.411 42 334.331 37.86 334.371 32.34C334.371 28.82 334.931 25.86 336.051 23.46C337.211 21.02 338.791 19.2 340.791 18C342.831 16.76 345.151 16.14 347.751 16.14C350.671 16.14 352.891 16.9 354.411 18.42V8.22002C354.411 6.38002 354.111 5.04002 353.511 4.20002C352.951 3.36002 351.971 2.94002 350.571 2.94002V1.68002C351.851 1.80002 353.091 1.86002 354.291 1.86002C357.771 1.86002 360.691 1.58002 363.051 1.02002V41.4ZM349.071 46.26C350.391 46.26 351.551 45.78 352.551 44.82C353.591 43.86 354.211 42.56 354.411 40.92V19.92C353.411 18.56 351.951 17.88 350.031 17.88C347.911 17.88 346.271 19.1 345.111 21.54C343.951 23.98 343.391 27.62 343.431 32.46C343.391 37.34 343.851 40.86 344.811 43.02C345.811 45.18 347.231 46.26 349.071 46.26Z" fill="#383838"/>
<path d="M375.991 1.50002C377.671 1.50002 378.991 1.92002 379.951 2.76002C380.951 3.56002 381.451 4.68002 381.451 6.12002C381.451 7.56002 380.951 8.70002 379.951 9.54002C378.991 10.34 377.671 10.74 375.991 10.74C374.311 10.74 372.971 10.34 371.971 9.54002C371.011 8.70002 370.531 7.56002 370.531 6.12002C370.531 4.68002 371.011 3.56002 371.971 2.76002C372.971 1.92002 374.311 1.50002 375.991 1.50002ZM380.671 42.42C380.671 44.06 380.951 45.2 381.511 45.84C382.111 46.44 383.111 46.74 384.511 46.74V48C380.511 47.84 377.851 47.76 376.531 47.76C375.291 47.76 372.511 47.84 368.191 48V46.74C369.631 46.74 370.631 46.44 371.191 45.84C371.751 45.2 372.031 44.06 372.031 42.42V23.52C372.031 21.68 371.751 20.34 371.191 19.5C370.631 18.66 369.631 18.24 368.191 18.24V16.98C369.471 17.1 370.711 17.16 371.911 17.16C375.471 17.16 378.391 16.88 380.671 16.32V42.42Z" fill="#383838"/>
<path d="M401.397 16.14C405.997 16.14 409.597 17.46 412.197 20.1C414.797 22.7 416.097 26.84 416.097 32.52C416.097 38.2 414.797 42.34 412.197 44.94C409.597 47.54 405.997 48.84 401.397 48.84C396.837 48.84 393.237 47.54 390.597 44.94C387.997 42.34 386.697 38.2 386.697 32.52C386.697 26.84 387.997 22.7 390.597 20.1C393.237 17.46 396.837 16.14 401.397 16.14ZM401.397 17.34C399.677 17.34 398.297 18.6 397.257 21.12C396.257 23.6 395.757 27.4 395.757 32.52C395.757 37.64 396.257 41.44 397.257 43.92C398.297 46.4 399.677 47.64 401.397 47.64C403.157 47.64 404.537 46.42 405.537 43.98C406.537 41.5 407.037 37.68 407.037 32.52C407.037 27.36 406.517 23.54 405.477 21.06C404.477 18.58 403.117 17.34 401.397 17.34Z" fill="#383838"/>
<circle cx="174" cy="6" r="6" fill="#EB008B"/>
<circle cx="376" cy="6" r="6" fill="#00ADEE"/>
</svg>
