<svg width="381" height="92" viewBox="0 0 381 92" fill="none" xmlns="http://www.w3.org/2000/svg">
<path fill-rule="evenodd" clip-rule="evenodd" d="M49.4 0.0221985C16.2 1.3222 0 41.5222 0 41.5222C0 41.5222 7.2 36.6222 15.9 37.6222C24.5 38.6222 36.9 56.6222 47.9 57.5222C58.6 58.4222 80.4 49.7222 81.9 30.3222C83.4 11.0222 67.1 -0.577802 49.4 0.0221985Z" fill="#FFF100"/>
<path fill-rule="evenodd" clip-rule="evenodd" d="M66.6 14.8222C50.6 3.82219 32.4 12.1222 24.1 27.8222C8.59998 57.1222 35.4 91.3222 35.4 91.3222C35.4 91.3222 34.8 82.6222 40 75.6222C45.2 68.6222 66.9 66.9222 73.2 57.8222C79.3 49.0222 82.6 25.8222 66.6 14.8222Z" fill="#00ADEE"/>
<path fill-rule="evenodd" clip-rule="evenodd" d="M57.6 1.32223C40.2 5.32223 27.5 20.8222 34 39.0222C40.5 57.3222 63.7 60.1222 73.9 56.4222C84.3 52.7222 91.6 32.2222 99.7 29.0222C107.8 25.8222 116 28.6222 116 28.6222C116 28.6222 89.9 -6.07777 57.6 1.32223ZM97.3 20.1222C96.5 21.5222 94.8 21.9222 93.4 21.1222C92 20.3222 91.6 18.6222 92.4 17.2222C93.2 15.8222 94.9 15.4222 96.3 16.2222C97.6 17.0222 98 18.7222 97.3 20.1222Z" fill="#000001"/>
<path fill-rule="evenodd" clip-rule="evenodd" d="M84.1 32.0222C80.6 13.0222 61.8 5.92224 44.8 11.1222C13.1 20.9222 7.90002 64.0222 7.90002 64.0222C7.90002 64.0222 13.6 57.4222 22.2 56.1222C30.8 54.8222 47.4 69.0222 58.3 67.0222C68.9 65.2222 87.6 51.1222 84.1 32.0222Z" fill="#EB008B"/>
<path fill-rule="evenodd" clip-rule="evenodd" d="M67.5999 30.5222C67.5999 24.0222 64.3 20.5222 58.9 20.5222C48.5 20.5222 41.7 34.2222 41.7 44.0222C41.7 51.1222 45.5999 53.9222 49.2999 53.9222C56.0999 53.9222 59.0999 47.6222 59.0999 46.0222C59.0999 44.9222 58.2999 43.9222 57.0999 43.9222C56.2999 43.9222 55.5999 44.4222 55.2999 45.1222C54.4 47.6222 52.5 49.9222 49.9 49.9222C47.4 49.9222 45.7999 47.4222 45.7999 43.9222C45.7999 35.3222 51.2 24.4222 58.4 24.4222C60.9 24.4222 63.2999 26.1222 63.2999 30.6222C63.2999 33.9222 62.5999 37.6222 62.0999 41.1222C61.5999 44.5222 61.0999 47.1222 61.0999 49.1222C61.0999 51.0222 61.7 53.6222 63.7 53.6222C64.8 53.6222 65.9 52.7222 65.9 51.6222C65.9 51.1222 65.7 50.8222 65.5 50.5222C65.4 50.2222 65.3 49.8222 65.3 49.3222C65.3 47.4222 65.8999 44.2222 66.1999 41.7222C67.0999 38.2222 67.5999 34.1222 67.5999 30.5222Z" fill="white"/>
<path d="M125.936 29.44H130.328L140.048 55H134.936L132.56 48.628H123.632L121.292 55H116.18L125.936 29.44ZM131.66 45.136L128.132 35.092L124.46 45.136H131.66ZM153.616 40.312C152.152 40.336 150.844 40.624 149.691 41.176C148.54 41.704 147.712 42.508 147.208 43.588V55H142.384V36.136H146.812V40.168C147.148 39.52 147.544 38.944 148 38.44C148.456 37.912 148.948 37.456 149.476 37.072C150.004 36.688 150.532 36.4 151.06 36.208C151.612 35.992 152.14 35.884 152.644 35.884C152.908 35.884 153.1 35.884 153.22 35.884C153.364 35.884 153.496 35.896 153.616 35.92V40.312ZM167.609 54.028C166.961 54.316 166.169 54.604 165.233 54.892C164.297 55.18 163.313 55.324 162.281 55.324C161.609 55.324 160.973 55.24 160.373 55.072C159.797 54.904 159.281 54.64 158.825 54.28C158.393 53.896 158.045 53.416 157.781 52.84C157.517 52.24 157.385 51.52 157.385 50.68V39.844H154.901V36.136H157.385V30.016H162.209V36.136H166.169V39.844H162.209V49.06C162.209 49.732 162.377 50.212 162.713 50.5C163.073 50.764 163.505 50.896 164.009 50.896C164.513 50.896 165.005 50.812 165.485 50.644C165.965 50.476 166.349 50.332 166.637 50.212L167.609 54.028ZM169.697 47.296V42.94H180.605V47.296H169.697ZM196.156 55.36C194.668 55.36 193.372 55.036 192.268 54.388C191.164 53.716 190.3 52.816 189.676 51.688V62.668H184.852V36.136H189.064V39.376C189.76 38.272 190.66 37.408 191.764 36.784C192.868 36.136 194.14 35.812 195.58 35.812C196.852 35.812 198.028 36.076 199.108 36.604C200.188 37.108 201.112 37.804 201.88 38.692C202.672 39.556 203.284 40.588 203.716 41.788C204.172 42.964 204.4 44.212 204.4 45.532C204.4 46.9 204.196 48.184 203.788 49.384C203.38 50.584 202.804 51.628 202.06 52.516C201.34 53.404 200.476 54.1 199.468 54.604C198.46 55.108 197.356 55.36 196.156 55.36ZM194.536 51.256C195.256 51.256 195.916 51.1 196.516 50.788C197.14 50.476 197.668 50.056 198.1 49.528C198.532 49 198.868 48.388 199.108 47.692C199.348 46.996 199.468 46.276 199.468 45.532C199.468 44.74 199.336 44.008 199.072 43.336C198.808 42.64 198.436 42.04 197.956 41.536C197.5 41.032 196.948 40.636 196.3 40.348C195.676 40.06 194.992 39.916 194.248 39.916C193.792 39.916 193.324 40 192.844 40.168C192.364 40.312 191.92 40.528 191.512 40.816C191.104 41.104 190.732 41.44 190.396 41.824C190.084 42.208 189.844 42.628 189.676 43.084V47.512C190.108 48.592 190.768 49.492 191.656 50.212C192.544 50.908 193.504 51.256 194.536 51.256ZM218.901 40.312C217.437 40.336 216.129 40.624 214.977 41.176C213.825 41.704 212.997 42.508 212.493 43.588V55H207.669V36.136H212.097V40.168C212.433 39.52 212.829 38.944 213.285 38.44C213.741 37.912 214.233 37.456 214.761 37.072C215.289 36.688 215.817 36.4 216.345 36.208C216.897 35.992 217.425 35.884 217.929 35.884C218.193 35.884 218.385 35.884 218.505 35.884C218.649 35.884 218.781 35.896 218.901 35.92V40.312ZM221.591 55V36.136H226.415V55H221.591ZM221.591 33.508V28.72H226.415V33.508H221.591ZM248.298 55H243.474V44.416C243.474 42.904 243.21 41.8 242.682 41.104C242.154 40.408 241.422 40.06 240.486 40.06C240.006 40.06 239.514 40.156 239.01 40.348C238.506 40.54 238.026 40.816 237.57 41.176C237.138 41.512 236.742 41.92 236.382 42.4C236.022 42.88 235.758 43.408 235.59 43.984V55H230.766V36.136H235.122V39.628C235.818 38.428 236.826 37.492 238.146 36.82C239.466 36.148 240.954 35.812 242.61 35.812C243.786 35.812 244.746 36.028 245.49 36.46C246.234 36.892 246.81 37.456 247.218 38.152C247.626 38.848 247.902 39.64 248.046 40.528C248.214 41.416 248.298 42.316 248.298 43.228V55ZM263.621 54.028C262.973 54.316 262.181 54.604 261.245 54.892C260.309 55.18 259.325 55.324 258.293 55.324C257.621 55.324 256.985 55.24 256.385 55.072C255.809 54.904 255.293 54.64 254.837 54.28C254.405 53.896 254.057 53.416 253.793 52.84C253.529 52.24 253.397 51.52 253.397 50.68V39.844H250.913V36.136H253.397V30.016H258.221V36.136H262.181V39.844H258.221V49.06C258.221 49.732 258.389 50.212 258.725 50.5C259.085 50.764 259.517 50.896 260.021 50.896C260.525 50.896 261.017 50.812 261.497 50.644C261.977 50.476 262.361 50.332 262.649 50.212L263.621 54.028ZM281.91 55.36C280.326 55.36 278.778 55.108 277.266 54.604C275.754 54.1 274.458 53.38 273.378 52.444L275.178 49.42C276.33 50.236 277.446 50.86 278.526 51.292C279.63 51.7 280.722 51.904 281.802 51.904C282.762 51.904 283.518 51.724 284.07 51.364C284.622 51.004 284.898 50.488 284.898 49.816C284.898 49.144 284.574 48.652 283.926 48.34C283.278 48.028 282.222 47.668 280.758 47.26C279.534 46.924 278.49 46.6 277.626 46.288C276.762 45.976 276.066 45.628 275.538 45.244C275.01 44.836 274.626 44.38 274.386 43.876C274.146 43.348 274.026 42.724 274.026 42.004C274.026 41.044 274.206 40.18 274.566 39.412C274.95 38.644 275.478 37.996 276.15 37.468C276.822 36.916 277.602 36.496 278.49 36.208C279.402 35.92 280.386 35.776 281.442 35.776C282.858 35.776 284.178 35.98 285.402 36.388C286.65 36.796 287.79 37.456 288.822 38.368L286.878 41.284C285.918 40.564 284.982 40.036 284.07 39.7C283.182 39.364 282.294 39.196 281.406 39.196C280.59 39.196 279.906 39.364 279.354 39.7C278.802 40.036 278.526 40.576 278.526 41.32C278.526 41.656 278.586 41.932 278.706 42.148C278.85 42.364 279.066 42.556 279.354 42.724C279.642 42.892 280.014 43.06 280.47 43.228C280.95 43.372 281.538 43.528 282.234 43.696C283.53 44.032 284.634 44.368 285.546 44.704C286.482 45.04 287.238 45.424 287.814 45.856C288.414 46.288 288.846 46.792 289.11 47.368C289.398 47.92 289.542 48.592 289.542 49.384C289.542 51.232 288.858 52.696 287.49 53.776C286.122 54.832 284.262 55.36 281.91 55.36ZM303.98 54.028C303.332 54.316 302.54 54.604 301.604 54.892C300.668 55.18 299.684 55.324 298.652 55.324C297.98 55.324 297.344 55.24 296.744 55.072C296.168 54.904 295.652 54.64 295.196 54.28C294.764 53.896 294.416 53.416 294.152 52.84C293.888 52.24 293.756 51.52 293.756 50.68V39.844H291.272V36.136H293.756V30.016H298.58V36.136H302.54V39.844H298.58V49.06C298.58 49.732 298.748 50.212 299.084 50.5C299.444 50.764 299.876 50.896 300.38 50.896C300.884 50.896 301.376 50.812 301.856 50.644C302.336 50.476 302.72 50.332 303.008 50.212L303.98 54.028ZM312.253 55.36C310.309 55.36 308.833 54.736 307.825 53.488C306.817 52.24 306.313 50.392 306.313 47.944V36.136H311.137V46.9C311.137 49.804 312.181 51.256 314.269 51.256C315.205 51.256 316.105 50.98 316.969 50.428C317.857 49.852 318.577 48.988 319.129 47.836V36.136H323.953V49.456C323.953 49.96 324.037 50.32 324.205 50.536C324.397 50.752 324.697 50.872 325.105 50.896V55C324.625 55.096 324.217 55.156 323.881 55.18C323.569 55.204 323.281 55.216 323.017 55.216C322.153 55.216 321.445 55.024 320.893 54.64C320.365 54.232 320.053 53.68 319.957 52.984L319.849 51.472C319.009 52.768 317.929 53.74 316.609 54.388C315.289 55.036 313.837 55.36 312.253 55.36ZM336.559 55.36C335.263 55.36 334.063 55.108 332.959 54.604C331.855 54.1 330.907 53.404 330.115 52.516C329.323 51.628 328.699 50.596 328.243 49.42C327.811 48.22 327.595 46.936 327.595 45.568C327.595 44.2 327.799 42.928 328.207 41.752C328.639 40.576 329.227 39.544 329.971 38.656C330.715 37.768 331.603 37.072 332.635 36.568C333.667 36.064 334.795 35.812 336.019 35.812C337.411 35.812 338.659 36.148 339.763 36.82C340.891 37.492 341.767 38.368 342.391 39.448V28.72H347.215V49.456C347.215 49.96 347.299 50.32 347.467 50.536C347.635 50.752 347.923 50.872 348.331 50.896V55C347.491 55.168 346.807 55.252 346.279 55.252C345.415 55.252 344.707 55.036 344.155 54.604C343.603 54.172 343.291 53.608 343.219 52.912L343.111 51.724C342.415 52.924 341.467 53.836 340.267 54.46C339.091 55.06 337.855 55.36 336.559 55.36ZM337.819 51.256C338.275 51.256 338.743 51.184 339.223 51.04C339.703 50.872 340.147 50.644 340.555 50.356C340.963 50.068 341.323 49.732 341.635 49.348C341.971 48.964 342.223 48.544 342.391 48.088V43.588C342.199 43.06 341.923 42.58 341.563 42.148C341.227 41.692 340.831 41.308 340.375 40.996C339.943 40.66 339.475 40.396 338.971 40.204C338.491 40.012 338.011 39.916 337.531 39.916C336.811 39.916 336.139 40.072 335.515 40.384C334.915 40.696 334.399 41.128 333.967 41.68C333.535 42.208 333.199 42.82 332.959 43.516C332.719 44.212 332.599 44.932 332.599 45.676C332.599 46.468 332.731 47.2 332.995 47.872C333.259 48.544 333.619 49.132 334.075 49.636C334.531 50.14 335.071 50.536 335.695 50.824C336.343 51.112 337.051 51.256 337.819 51.256ZM351.95 55V36.136H356.774V55H351.95ZM351.95 33.508V28.72H356.774V33.508H351.95ZM369.838 55.36C368.302 55.36 366.922 55.096 365.698 54.568C364.474 54.04 363.43 53.332 362.566 52.444C361.726 51.532 361.078 50.488 360.622 49.312C360.166 48.136 359.938 46.9 359.938 45.604C359.938 44.284 360.166 43.036 360.622 41.86C361.078 40.684 361.726 39.652 362.566 38.764C363.43 37.852 364.474 37.132 365.698 36.604C366.922 36.076 368.302 35.812 369.838 35.812C371.374 35.812 372.742 36.076 373.942 36.604C375.166 37.132 376.198 37.852 377.038 38.764C377.902 39.652 378.562 40.684 379.018 41.86C379.474 43.036 379.702 44.284 379.702 45.604C379.702 46.9 379.474 48.136 379.018 49.312C378.562 50.488 377.914 51.532 377.074 52.444C376.234 53.332 375.202 54.04 373.978 54.568C372.754 55.096 371.374 55.36 369.838 55.36ZM364.906 45.604C364.906 46.444 365.026 47.212 365.266 47.908C365.53 48.58 365.878 49.168 366.31 49.672C366.766 50.176 367.294 50.572 367.894 50.86C368.494 51.124 369.142 51.256 369.838 51.256C370.534 51.256 371.182 51.124 371.782 50.86C372.382 50.572 372.898 50.176 373.33 49.672C373.786 49.168 374.134 48.568 374.374 47.872C374.638 47.176 374.77 46.408 374.77 45.568C374.77 44.752 374.638 43.996 374.374 43.3C374.134 42.604 373.786 42.004 373.33 41.5C372.898 40.996 372.382 40.612 371.782 40.348C371.182 40.06 370.534 39.916 369.838 39.916C369.142 39.916 368.494 40.06 367.894 40.348C367.294 40.636 366.766 41.032 366.31 41.536C365.878 42.04 365.53 42.64 365.266 43.336C365.026 44.032 364.906 44.788 364.906 45.604Z" fill="#383838"/>
<circle cx="224" cy="31" r="4" fill="#EB008B"/>
<circle cx="354.5" cy="30.5" r="3.5" fill="#00ADEE"/>
</svg>
